<?xml version="1.0" encoding="UTF-8"?>
<svg id="Scene_2" xmlns="http://www.w3.org/2000/svg" viewBox="0 0 1200 1200">
  <defs>
    <style>
      .cls-1 {
        fill: #8cc63f;
      }

      .cls-2 {
        fill: #fff;
      }

      .cls-3 {
        fill: #f2f2f2;
      }
    </style>
  </defs>
  <g>
    <path d="M759.58,722.58l-26.18.73-24.82-1.44,2.78,114.09c.41,11.31,8.84,20.64,19.29,21.33h0c10.8.72,19.84-8.05,20.33-19.71l8.6-115Z"/>
    <g>
      <g>
        <path class="cls-2" d="M584.19,711.99v18.38c0,10.45,7.52,19.37,17.81,21.14l192.57,33.04c8.51,1.4,17.11-1.96,22.42-8.76l48.95-62.71c12.11-15.51,20.41-33.26,24.33-52.05l34.48-166.97c2.04-9.86-5.49-19.1-15.55-19.11l-31.53.49"/>
        <path d="M798.41,786.86c-1.38,0-2.77-.11-4.16-.34l-192.59-33.05c-11.29-1.94-19.48-11.66-19.48-23.11v-18.38c0-1.1.9-2,2.01-2h0c1.1,0,2,.9,2,2v18.38c0,9.5,6.79,17.56,16.15,19.17l192.57,33.04c7.78,1.27,15.64-1.79,20.51-8.02l48.95-62.71c12-15.38,20.06-32.61,23.95-51.23l34.48-166.97c.85-4.11-.18-8.33-2.83-11.58-2.65-3.25-6.57-5.12-10.77-5.12l-31.5.49c-1.12,0-2.01-.86-2.03-1.97-.02-1.1.86-2.01,1.97-2.03l31.53-.49c5.43,0,10.49,2.41,13.9,6.6,3.41,4.19,4.74,9.62,3.65,14.91l-34.48,166.97c-4.02,19.22-12.33,37.01-24.72,52.88l-48.95,62.71c-4.9,6.27-12.36,9.84-20.16,9.84Z"/>
      </g>
      <g>
        <path class="cls-2" d="M883.28,475.35l-176.43,2.95c-6.9.12-12.85,4.9-14.43,11.62l-31.66,134.29c-4.46,18.91-15.95,35.79-32.56,47.8l-37.75,27.31c-10.87,7.86-6.84,24.94,6.4,27.11l186.66,30.7c5.42.89,10.9-1.23,14.3-5.55l46.44-58.93c10.93-13.87,18.42-29.74,21.95-46.54l32.12-152.59c2-9.48-5.33-18.36-15.02-18.19Z"/>
        <path d="M785.94,759.34c-.92,0-1.85-.07-2.77-.23l-186.66-30.7c-6.93-1.14-12.25-6.1-13.86-12.94s.92-13.65,6.62-17.77l37.75-27.31c16.16-11.69,27.45-28.26,31.79-46.64l31.66-134.29c1.8-7.62,8.52-13.03,16.35-13.16l176.43-2.95.03,2-.03-2c5.24-.11,10.14,2.18,13.46,6.21,3.33,4.03,4.62,9.28,3.54,14.4l-32.12,152.59c-3.62,17.22-11.14,33.16-22.34,47.37l-46.44,58.92c-3.27,4.15-8.24,6.51-13.42,6.51ZM883.54,477.35c-.07,0-.15,0-.22,0l-176.43,2.95c-6,.1-11.14,4.25-12.52,10.08l-31.66,134.29c-4.55,19.32-16.39,36.71-33.34,48.96l-37.75,27.31c-4.36,3.16-6.3,8.37-5.07,13.61,1.24,5.24,5.3,9.04,10.61,9.91l186.66,30.7c4.7.77,9.45-1.07,12.4-4.81l46.44-58.92c10.81-13.72,18.07-29.1,21.56-45.71l32.12-152.59c.83-3.92-.16-7.94-2.71-11.03-2.5-3.03-6.17-4.76-10.09-4.76Z"/>
      </g>
    </g>
    <g>
      <g>
        <path d="M716.86,822.9l-99.21,42.39c-8.98,3.84-15.52,11.8-17.56,21.34l-1.52,7.13,23.76,3.34h0c2.71-11.22,10.71-20.41,21.44-24.64l81.17-31.97-8.1-17.59Z"/>
        <path d="M714.85,828.11l4.7,10.21-77.23,30.42c-10.8,4.25-19.13,13.05-22.85,23.92l-16.09-2.26.62-2.93c1.76-8.26,7.45-15.18,15.21-18.5l95.63-40.86M716.86,822.9l-99.21,42.39c-8.98,3.84-15.52,11.8-17.56,21.34l-1.52,7.13,23.76,3.34c2.71-11.22,10.71-20.41,21.44-24.64l81.17-31.97-8.1-17.59h0Z"/>
      </g>
      <g>
        <circle class="cls-2" cx="607.7" cy="917.24" r="27.75"/>
        <path d="M607.67,889.49v4h0c1.81,0,3.64.21,5.43.63,6.18,1.44,11.42,5.21,14.77,10.59,3.35,5.39,4.4,11.76,2.95,17.94-2.52,10.81-12.03,18.35-23.1,18.35-1.81,0-3.64-.21-5.43-.63-6.18-1.44-11.42-5.21-14.77-10.59-3.35-5.39-4.4-11.76-2.95-17.94,2.52-10.8,12.03-18.35,23.1-18.35v-4M607.67,889.49c-12.6,0-24.01,8.64-27,21.44-3.49,14.92,5.78,29.85,20.71,33.34,2.12.5,4.25.73,6.34.73,12.6,0,24.01-8.64,27-21.44,3.49-14.92-5.78-29.85-20.71-33.34-2.12-.5-4.25-.73-6.34-.73h0Z"/>
      </g>
    </g>
    <g>
      <g>
        <path d="M738.03,818.9l99.21,42.39c8.98,3.84,15.52,11.8,17.56,21.34l1.52,7.13-23.76,3.34h0c-2.71-11.22-10.71-20.41-21.44-24.64l-81.17-31.97,8.1-17.59Z"/>
        <path d="M740.04,824.11l95.63,40.86c7.77,3.32,13.46,10.23,15.22,18.5l.62,2.93-16.09,2.26c-3.72-10.87-12.05-19.67-22.85-23.92l-77.23-30.42,4.7-10.21M738.03,818.9l-8.09,17.59,81.17,31.97c10.74,4.23,18.74,13.42,21.44,24.64l23.76-3.34-1.52-7.13c-2.03-9.55-8.58-17.51-17.56-21.34l-99.21-42.39h0Z"/>
      </g>
      <g>
        <circle class="cls-2" cx="847.2" cy="913.24" r="27.75"/>
        <path d="M847.22,889.49c11.08,0,20.58,7.55,23.1,18.35,2.98,12.75-4.97,25.55-17.72,28.53-1.79.42-3.61.63-5.43.63-11.08,0-20.58-7.55-23.1-18.35-2.98-12.75,4.97-25.55,17.72-28.53,1.79-.42,3.61-.63,5.43-.63M847.22,885.49c-2.09,0-4.21.24-6.34.73-14.92,3.49-24.2,18.41-20.71,33.34,2.99,12.8,14.4,21.44,27,21.44,2.09,0,4.21-.24,6.34-.73,14.92-3.49,24.2-18.41,20.71-33.34-2.99-12.8-14.4-21.44-27-21.44h0Z"/>
      </g>
    </g>
    <g>
      <circle class="cls-2" cx="734.08" cy="879.95" r="27.75"/>
      <path d="M734.1,856.19c11.08,0,20.58,7.55,23.1,18.35,2.98,12.75-4.97,25.55-17.72,28.53-1.79.42-3.61.63-5.43.63-11.08,0-20.58-7.55-23.1-18.35-1.44-6.18-.39-12.55,2.95-17.94,3.35-5.39,8.59-9.15,14.77-10.59,1.79-.42,3.61-.63,5.43-.63M734.1,852.19c-2.09,0-4.21.24-6.34.73-14.92,3.49-24.2,18.41-20.71,33.34,2.99,12.8,14.4,21.44,27,21.44,2.09,0,4.21-.24,6.34-.73,14.92-3.49,24.2-18.41,20.71-33.34-2.99-12.8-14.4-21.44-27-21.44h0Z"/>
    </g>
  </g>
  <g>
    <path d="M129.66,935.5c-.44,0-.88-.07-1.31-.22-2.09-.72-3.19-3-2.47-5.09l88.26-254.12c1.49-4.29,5.43-7.16,10.04-7.32,4.64-.17,8.77,2.44,10.55,6.63l107.07,250.82c.87,2.03-.08,4.38-2.11,5.25-2.03.87-4.38-.08-5.25-2.11l-107.07-250.82c-.73-1.71-2.43-1.79-2.92-1.78-.5.02-2.16.21-2.76,1.95l-88.26,254.12c-.57,1.65-2.12,2.69-3.78,2.69Z"/>
    <path d="M437.8,935.5c-.44,0-.88-.07-1.31-.22-2.09-.72-3.19-3-2.47-5.09l88.26-254.12c1.49-4.29,5.43-7.16,10.04-7.32,4.58-.17,8.77,2.44,10.56,6.63l107.07,250.82c.87,2.03-.08,4.38-2.11,5.25-2.03.87-4.38-.08-5.25-2.11l-107.07-250.82c-.73-1.71-2.43-1.79-2.92-1.78-.5.02-2.16.21-2.76,1.95l-88.26,254.12c-.57,1.65-2.12,2.69-3.78,2.69Z"/>
    <g>
      <rect class="cls-3" x="82.6" y="638" width="619.92" height="34.74" rx="10" ry="10"/>
      <path d="M692.52,674.75H92.6c-6.62,0-12-5.38-12-12v-14.75c0-6.62,5.38-12,12-12h599.92c6.62,0,12,5.38,12,12v14.75c0,6.62-5.38,12-12,12ZM92.6,640c-4.41,0-8,3.59-8,8v14.75c0,4.41,3.59,8,8,8h599.92c4.41,0,8-3.59,8-8v-14.75c0-4.41-3.59-8-8-8H92.6Z"/>
    </g>
  </g>
  <g>
    <rect class="cls-2" x="152.05" y="125.16" width="307" height="380.59" rx="36.73" ry="36.73"/>
    <path d="M422.32,507.75h-233.54c-21.36,0-38.73-17.37-38.73-38.73V161.89c0-21.35,17.37-38.73,38.73-38.73h233.54c21.36,0,38.73,17.37,38.73,38.73v307.13c0,21.35-17.37,38.73-38.73,38.73ZM188.78,127.16c-19.15,0-34.73,15.58-34.73,34.73v307.13c0,19.15,15.58,34.73,34.73,34.73h233.54c19.15,0,34.73-15.58,34.73-34.73V161.89c0-19.15-15.58-34.73-34.73-34.73h-233.54Z"/>
  </g>
  <g>
    <rect class="cls-3" x="167.05" y="141.56" width="277" height="347.79" rx="36.73" ry="36.73"/>
    <path d="M407.32,491.35h-203.54c-21.35,0-38.73-17.37-38.73-38.73V178.29c0-21.35,17.37-38.73,38.73-38.73h203.54c21.36,0,38.73,17.37,38.73,38.73v274.33c0,21.36-17.37,38.73-38.73,38.73ZM203.78,143.56c-19.15,0-34.73,15.58-34.73,34.73v274.33c0,19.15,15.58,34.73,34.73,34.73h203.54c19.15,0,34.73-15.58,34.73-34.73V178.29c0-19.15-15.58-34.73-34.73-34.73h-203.54Z"/>
  </g>
  <path class="cls-2" d="M293.72,410.29c-.51,0-1.03-.1-1.53-.3-1.61-.66-2.6-2.29-2.46-4.02l14.09-175.98-75.67,60.05c-1.73,1.37-4.25,1.08-5.62-.65-1.37-1.73-1.08-4.25.65-5.62l82.88-65.77c1.25-.99,2.96-1.15,4.37-.4,1.41.75,2.23,2.26,2.11,3.85l-13.84,172.77,76.37-90.13c1.43-1.69,3.95-1.89,5.64-.47s1.89,3.95.47,5.64l-84.4,99.61c-.78.92-1.9,1.41-3.05,1.41Z"/>
  <g>
    <path class="cls-1" d="M1012.22,752.62s-12.79-150.7,3.53-197.24c2.21-6.3,9.13-21.25,27.09-20.47s21.17,12.54,22.74,19.29c3.83,16.39-5.16,55.17,6.82,67,4.97,4.91,23.29,2.09,27.74-3.29,5.11-6.18-1.76-24.67,1.41-32.04,4.77-11.1,18.84-4.06,22.33.3,7.72,9.62.24,49.33.24,49.33.04,7.31-5.32,13.53-12.56,14.57l-27.03,3.89c-9.05,5.82-14.59,15.79-14.76,26.55l-1.14,72.58-56.42-.47Z"/>
    <g>
      <path class="cls-3" d="M1031.49,753.5h83.85c4.89,0,8.85,3.97,8.85,8.85v164.29c0,4.89-3.97,8.85-8.85,8.85h-83.85c-32.73,0-59.3-26.57-59.3-59.3v-63.4c0-32.73,26.57-59.3,59.3-59.3Z"/>
      <path d="M1064.89,937.5h-33.4c-33.8,0-61.3-27.5-61.3-61.3v-113.85c0-5.98,4.87-10.85,10.85-10.85h134.29c5.99,0,10.85,4.87,10.85,10.85v113.85c0,33.8-27.5,61.3-61.3,61.3ZM981.05,755.5c-3.78,0-6.85,3.07-6.85,6.85v113.85c0,31.59,25.7,57.3,57.3,57.3h33.4c31.59,0,57.3-25.7,57.3-57.3v-113.85c0-3.78-3.08-6.85-6.85-6.85h-134.29Z"/>
    </g>
  </g>
</svg>