<?xml version="1.0" encoding="UTF-8"?>
<svg id="Scene_4" xmlns="http://www.w3.org/2000/svg" viewBox="0 0 1200 1200">
  <defs>
    <style>
      .cls-1 {
        fill: #fff;
      }

      .cls-2 {
        fill: #7070ff;
      }

      .cls-3 {
        fill: #f2f2f2;
      }
    </style>
  </defs>
  <rect class="cls-1" x="805.46" y="712.7" width="247.19" height="59.43" rx="10.49" ry="10.49" transform="translate(186.64 1671.48) rotate(-90)"/>
  <rect class="cls-1" x="724.11" y="826.78" width="247.19" height="59.43" rx="10.49" ry="10.49"/>
  <g>
    <path d="M296.03,1077.02c-.45,0-.9-.08-1.34-.23-2.08-.74-3.17-3.03-2.43-5.11l90.26-253.43c1.5-4.19,5.43-7.01,10.02-7.17,4.57-.16,8.75,2.38,10.55,6.48l111.06,251.74c.89,2.02-.02,4.38-2.04,5.27-2.02.9-4.38-.02-5.27-2.04l-111.07-251.75c-.73-1.66-2.44-1.72-2.95-1.71-.5.02-2.17.2-2.76,1.86l-90.26,253.43c-.58,1.64-2.12,2.66-3.77,2.66Z"/>
    <g>
      <rect class="cls-1" x="164.47" y="781.23" width="452" height="33.83" rx="10" ry="10"/>
      <path d="M606.47,817.06H174.47c-6.62,0-12-5.38-12-12v-13.83c0-6.62,5.38-12,12-12h432c6.62,0,12,5.38,12,12v13.83c0,6.62-5.38,12-12,12ZM174.47,783.23c-4.41,0-8,3.59-8,8v13.83c0,4.41,3.59,8,8,8h432c4.41,0,8-3.59,8-8v-13.83c0-4.41-3.59-8-8-8H174.47Z"/>
    </g>
  </g>
  <path d="M1102,1078.02H98c-1.1,0-2-.9-2-2s.9-2,2-2h1004c1.1,0,2,.9,2,2s-.9,2-2,2Z"/>
  <g>
    <g>
      <path d="M740.47,889.06c-9.9,0-18-8.01-18.09-17.92h0l-.26-28.82c-.04-4.83,1.8-9.39,5.18-12.84s7.91-5.37,12.74-5.42l216.89-1.98c4.86-.02,9.39,1.8,12.84,5.18,3.45,3.39,5.37,7.91,5.42,12.74l.26,28.82c.09,9.97-7.95,18.16-17.92,18.25l-216.89,1.98c-.06,0-.11,0-.17,0ZM726.38,871.1c.07,7.73,6.38,13.96,14.09,13.96.04,0,.09,0,.13,0l216.89-1.98c3.76-.03,7.29-1.53,9.92-4.22,2.64-2.69,4.07-6.24,4.04-10l-.26-28.82c-.07-7.73-6.38-13.96-14.09-13.96-.04,0-.09,0-.13,0l-216.89,1.98c-7.77.07-14.03,6.45-13.96,14.22l.26,28.82Z"/>
      <g>
        <path d="M876.28,886.42l-22.17.82-21.04-1.03,3.24,96.63c.43,9.58,7.65,17.42,16.5,17.92h0c9.15.52,16.75-6.97,17.07-16.85l6.39-97.49Z"/>
        <g>
          <g>
            <path d="M840.87,971.73l-83.72,36.68c-7.57,3.32-13.06,10.11-14.71,18.22l-1.23,6.05,20.16,2.65h0c2.2-9.52,8.91-17.38,17.98-21.04l68.51-27.71-6.99-14.84Z"/>
            <path d="M838.91,976.96l3.53,7.49-64.59,26.13c-9.12,3.69-16.16,11.15-19.36,20.34l-12.5-1.64.38-1.85c1.39-6.82,6.02-12.56,12.39-15.35l80.15-35.12M840.87,971.73l-83.72,36.68c-7.57,3.32-13.06,10.11-14.71,18.22l-1.23,6.05,20.16,2.65c2.2-9.52,8.91-17.38,17.98-21.04l68.51-27.71-6.99-14.84h0Z"/>
          </g>
          <g>
            <circle class="cls-1" cx="749.12" cy="1052.5" r="23.51"/>
            <path d="M749.1,1032.99h0c1.43,0,2.87.16,4.29.48,10.5,2.35,17.12,12.81,14.77,23.3-1.98,8.84-9.98,15.25-19.02,15.25-1.43,0-2.87-.16-4.29-.48-10.5-2.35-17.12-12.81-14.77-23.3,1.98-8.84,9.98-15.25,19.02-15.25M749.1,1028.99c-10.76,0-20.47,7.44-22.92,18.38-2.84,12.67,5.13,25.24,17.8,28.08,1.73.39,3.46.57,5.16.57,10.76,0,20.47-7.44,22.92-18.37,2.84-12.67-5.13-25.24-17.8-28.08-1.73-.39-3.46-.57-5.16-.57h0Z"/>
          </g>
        </g>
        <g>
          <g>
            <path d="M861.4,972.58l84.37,35.14c7.63,3.18,13.24,9.87,15.04,17.95l1.34,6.03-20.11,3.02h0c-2.38-9.48-9.23-17.21-18.36-20.71l-69.01-26.46,6.72-14.97Z"/>
            <path d="M863.46,977.77l80.78,33.65c6.42,2.68,11.16,8.33,12.67,15.12l.41,1.84-12.47,1.87c-3.37-9.13-10.54-16.46-19.73-19.98l-65.06-24.94,3.39-7.56M861.4,972.58l-6.72,14.97,69.01,26.46c9.13,3.5,15.98,11.23,18.36,20.71l20.11-3.02-1.34-6.03c-1.79-8.07-7.4-14.77-15.04-17.95l-84.37-35.14h0Z"/>
          </g>
          <g>
            <circle class="cls-1" cx="954.61" cy="1051.66" r="23.51"/>
            <path d="M954.63,1032.14c9.02,0,16.8,6.13,18.94,14.9,2.54,10.45-3.89,21.03-14.34,23.57-1.52.37-3.08.56-4.63.56-9.02,0-16.8-6.13-18.94-14.9-2.54-10.45,3.89-21.03,14.34-23.57,1.52-.37,3.08-.56,4.63-.56M954.63,1028.14c-1.84,0-3.71.22-5.58.67-12.62,3.07-20.35,15.79-17.29,28.4,2.62,10.75,12.23,17.96,22.82,17.96,1.84,0,3.71-.22,5.58-.67,12.62-3.07,20.35-15.79,17.29-28.4-2.62-10.75-12.23-17.96-22.82-17.96h0Z"/>
          </g>
        </g>
      </g>
    </g>
    <path d="M961.06,826.34h-64c-1.1,0-2-.9-2-2v-189.68c0-11.76,9.56-21.32,21.32-21.32h25.36c11.76,0,21.32,9.56,21.32,21.32v189.68c0,1.1-.9,2-2,2ZM899.06,822.34h60v-187.68c0-9.55-7.77-17.32-17.32-17.32h-25.36c-9.55,0-17.32,7.77-17.32,17.32v187.68Z"/>
  </g>
  <g>
    <rect class="cls-3" x="307.5" y="270.79" width="560.99" height="362.31" rx="26.94" ry="26.94"/>
    <path d="M841.56,635.09h-507.12c-15.96,0-28.94-12.98-28.94-28.94v-308.43c0-15.96,12.98-28.94,28.94-28.94h507.12c15.96,0,28.94,12.98,28.94,28.94v308.43c0,15.96-12.98,28.94-28.94,28.94ZM334.44,272.79c-13.75,0-24.94,11.19-24.94,24.94v308.43c0,13.75,11.19,24.94,24.94,24.94h507.12c13.75,0,24.94-11.19,24.94-24.94v-308.43c0-13.75-11.19-24.94-24.94-24.94h-507.12Z"/>
  </g>
  <g>
    <g>
      <rect x="234.89" y="694.03" width="79" height="87.21" rx="18.21" ry="18.21"/>
      <path d="M315.63,759.38c-11.99,0-21.75-9.76-21.75-21.75s9.76-21.75,21.75-21.75,21.75,9.76,21.75,21.75-9.76,21.75-21.75,21.75ZM315.63,723.88c-7.58,0-13.75,6.17-13.75,13.75s6.17,13.75,13.75,13.75,13.75-6.17,13.75-13.75-6.17-13.75-13.75-13.75Z"/>
    </g>
    <path class="cls-3" d="M271.37,681.4c-1.98,0-3.7-1.47-3.96-3.48-.29-2.19,1.25-4.2,3.45-4.49,5.6-.74,10.21-6.73,9.49-12.33-.44-3.42-2.56-7.03-6.47-11.04-1.1-1.13-2.24-2.21-3.46-3.35-2.67-2.52-5.43-5.13-7.74-8.29-4.32-5.91-5.79-12.54-4.04-18.18,1.19-3.84,4.17-7.11,7.97-8.76,3.31-1.44,6.79-1.43,9.79.02,1.99.96,2.82,3.35,1.86,5.34-.96,1.99-3.35,2.82-5.34,1.86-1.11-.54-2.31-.23-3.12.12-1.64.71-3.02,2.21-3.52,3.8-.98,3.15.09,7.3,2.86,11.09,1.87,2.57,4.25,4.82,6.77,7.2,1.21,1.15,2.47,2.33,3.68,3.58,5.17,5.29,8.01,10.4,8.68,15.6,1.3,10.02-6.36,19.97-16.38,21.29-.18.02-.35.03-.53.03Z"/>
  </g>
  <g>
    <g>
      <rect class="cls-3" x="412.24" y="760.23" width="194" height="21" rx="10.5" ry="10.5"/>
      <path d="M595.74,764.23c3.58,0,6.5,2.92,6.5,6.5s-2.92,6.5-6.5,6.5h-173c-3.58,0-6.5-2.92-6.5-6.5s2.92-6.5,6.5-6.5h173M595.74,760.23h-173c-5.8,0-10.5,4.7-10.5,10.5s4.7,10.5,10.5,10.5h173c5.8,0,10.5-4.7,10.5-10.5s-4.7-10.5-10.5-10.5h0Z"/>
    </g>
    <g>
      <rect class="cls-3" x="321.24" y="687.82" width="164.71" height="22.41" rx="10.5" ry="10.5" transform="translate(-170.79 1266.13) rotate(-104.63)"/>
      <path d="M386.13,622.82c2.95,0,5.53,2,6.28,4.86l36.31,139.05c.44,1.68.2,3.43-.68,4.93-.88,1.5-2.29,2.56-3.97,3l-1.37.36c-.54.14-1.1.21-1.65.21-2.95,0-5.53-2-6.28-4.86l-36.31-139.05c-.44-1.68-.2-3.43.68-4.93.88-1.5,2.29-2.56,3.97-3l1.36-.36c.54-.14,1.1-.21,1.65-.21M386.13,618.82c-.88,0-1.77.11-2.66.34l-1.36.36c-5.61,1.47-8.97,7.2-7.51,12.81l36.31,139.05c1.23,4.72,5.49,7.85,10.15,7.85.88,0,1.77-.11,2.66-.34l1.37-.36c5.61-1.47,8.97-7.2,7.51-12.81l-36.31-139.05c-1.23-4.72-5.49-7.85-10.15-7.85h0Z"/>
    </g>
  </g>
  <g>
    <path class="cls-3" d="M483.63,488.48c-31.74,0-57.47-25.3-57.47-56.5M483.63,488.48c61.62.47,57.47-56.5,57.47-56.5l-48.92-5.18-8.29-48.31M483.63,375.49c-31.74,0-57.47,25.3-57.47,56.5"/>
    <path d="M484.39,490.49c-.26,0-.51,0-.77,0-32.79,0-59.46-26.24-59.46-58.5s26.68-58.5,59.47-58.5c1.1,0,2,.9,2,2,0,.54-.21,1.02-.55,1.38.41.3.7.74.79,1.28l8.03,46.82,47.41,5.03c.96.1,1.71.88,1.78,1.84.07,1.02,1.63,25.11-14.45,42.27-10.18,10.87-25.07,16.37-44.25,16.37ZM483.65,486.48c.25,0,.5,0,.74,0,18.02,0,31.92-5.07,41.31-15.08,12.57-13.39,13.48-32.01,13.45-37.61l-47.18-5c-.89-.09-1.61-.77-1.76-1.65l-8.29-48.31c-.08-.47.01-.93.23-1.32-29.91.77-54,24.91-54,54.48s24.89,54.5,55.47,54.5h.02Z"/>
  </g>
  <path class="cls-2" d="M618.46,596.16c-.31,0-.62-.07-.92-.22-.98-.51-1.37-1.71-.86-2.69l40.25-78c.32-.62.94-1.03,1.64-1.08.71-.05,1.37.27,1.77.84l35.22,49.53,32.5-74.02c.28-.64.88-1.09,1.57-1.18.7-.09,1.38.19,1.82.73l24.7,30.79,16.44-43.4c.39-1.03,1.55-1.55,2.58-1.16,1.03.39,1.55,1.55,1.16,2.58l-17.68,46.67c-.25.67-.85,1.15-1.56,1.27-.71.11-1.42-.16-1.87-.72l-24.83-30.95-32.6,74.23c-.29.66-.91,1.11-1.63,1.19-.72.07-1.42-.24-1.83-.83l-35.36-49.73-38.75,75.08c-.36.69-1.05,1.08-1.78,1.08Z"/>
  <g>
    <rect class="cls-2" x="588" y="330.67" width="25.13" height="121.27" rx="4.15" ry="4.15"/>
    <path d="M645.77,453.94h-16.13c-3.39,0-6.15-2.76-6.15-6.15v-74.85c0-3.39,2.76-6.15,6.15-6.15h16.13c3.39,0,6.15,2.76,6.15,6.15v74.85c0,3.39-2.76,6.15-6.15,6.15ZM629.64,370.78c-1.19,0-2.15.97-2.15,2.15v74.85c0,1.19.96,2.15,2.15,2.15h16.13c1.19,0,2.15-.97,2.15-2.15v-74.85c0-1.19-.96-2.15-2.15-2.15h-16.13Z"/>
    <path d="M682.57,453.94h-16.13c-3.39,0-6.15-2.76-6.15-6.15v-41.07c0-3.39,2.76-6.15,6.15-6.15h16.13c3.39,0,6.15,2.76,6.15,6.15v41.07c0,3.39-2.76,6.15-6.15,6.15ZM666.44,404.56c-1.19,0-2.15.97-2.15,2.15v41.07c0,1.19.96,2.15,2.15,2.15h16.13c1.19,0,2.15-.97,2.15-2.15v-41.07c0-1.19-.96-2.15-2.15-2.15h-16.13Z"/>
    <path d="M717.96,453.94h-14.73c-3.39,0-6.15-2.76-6.15-6.15v-20.28c0-3.39,2.76-6.15,6.15-6.15h14.73c3.39,0,6.15,2.76,6.15,6.15v20.28c0,3.39-2.76,6.15-6.15,6.15ZM703.23,425.35c-1.19,0-2.15.97-2.15,2.15v20.28c0,1.19.96,2.15,2.15,2.15h14.73c1.19,0,2.15-.97,2.15-2.15v-20.28c0-1.19-.96-2.15-2.15-2.15h-14.73Z"/>
  </g>
</svg>