<?xml version="1.0" encoding="UTF-8"?>
<svg id="Scene_1" xmlns="http://www.w3.org/2000/svg" viewBox="0 0 1200 1200">
  <defs>
    <style>
      .cls-1 {
        fill: #fff;
      }

      .cls-2 {
        fill: #7070ff;
      }

      .cls-3 {
        fill: #ffb700;
      }

      .cls-4 {
        fill: #f2f2f2;
      }
    </style>
  </defs>
  <path class="cls-4" d="M742.48,695.16l-133.8,3.97s-2.21-70.69,56.89-29.28c3.96,2.77,3.19-51.45,55.05-40.35,54.02,11.56,21.86,65.66,21.86,65.66Z"/>
  <path d="M1082.51,947H117.49c-1.1,0-2-.9-2-2s.9-2,2-2h965.01c1.1,0,2,.9,2,2s-.9,2-2,2Z"/>
  <g>
    <g>
      <g>
        <rect class="cls-2" x="192" y="249" width="408" height="758" rx="60.33" ry="60.33"/>
        <path d="M539.67,253c31.06,0,56.33,25.27,56.33,56.33v637.33c0,31.06-25.27,56.33-56.33,56.33H252.33c-31.06,0-56.33-25.27-56.33-56.33V309.33c0-31.06,25.27-56.33,56.33-56.33h287.33M539.67,249H252.33c-33.32,0-60.33,27.01-60.33,60.33v637.33c0,33.32,27.01,60.33,60.33,60.33h287.33c33.32,0,60.33-27.01,60.33-60.33V309.33c0-33.32-27.01-60.33-60.33-60.33h0Z"/>
      </g>
      <g>
        <rect class="cls-1" x="217" y="277" width="358" height="702" rx="60.33" ry="60.33"/>
        <path d="M514.67,281c31.06,0,56.33,25.27,56.33,56.33v581.33c0,31.06-25.27,56.33-56.33,56.33h-237.33c-31.06,0-56.33-25.27-56.33-56.33V337.33c0-31.06,25.27-56.33,56.33-56.33h237.33M514.67,277h-237.33c-33.32,0-60.33,27.01-60.33,60.33v581.33c0,33.32,27.01,60.33,60.33,60.33h237.33c33.32,0,60.33-27.01,60.33-60.33V337.33c0-33.32-27.01-60.33-60.33-60.33h0Z"/>
      </g>
    </g>
    <rect class="cls-4" x="260" y="334.27" width="272" height="104" rx="25.19" ry="25.19"/>
    <rect class="cls-4" x="260" y="628" width="272" height="299" rx="25.19" ry="25.19"/>
    <rect class="cls-4" x="260" y="488.27" width="272" height="82" rx="25.19" ry="25.19"/>
  </g>
  <circle class="cls-3" cx="904.17" cy="676.75" r="104.75"/>
  <ellipse class="cls-3" cx="904.17" cy="505.75" rx="116.5" ry="171"/>
  <path d="M904.17,947c-1.1,0-2-.9-2-2v-449.35c0-1.1.9-2,2-2s2,.9,2,2v449.35c0,1.1-.9,2-2,2Z"/>
  <path class="cls-4" d="M798.08,212.27l228.93,9.64s2.65-133.31-97.78-56.16c-6.73,5.17-6.29-97.1-94.82-77-92.22,20.94-36.33,123.52-36.33,123.52Z"/>
</svg>