<?xml version="1.0" encoding="UTF-8"?>
<svg id="Scene_3" xmlns="http://www.w3.org/2000/svg" viewBox="0 0 1200 1200">
  <defs>
    <style>
      .cls-1 {
        fill: #fff;
      }

      .cls-2 {
        fill: #7070ff;
      }

      .cls-3 {
        fill: #f2f2f2;
      }
    </style>
  </defs>
  <path class="cls-1" d="M592.93,613.3h14.6c52.22,0,94.61,42.39,94.61,94.61v108.96h-200.31v-112.47c0-50.28,40.82-91.1,91.1-91.1Z"/>
  <rect class="cls-1" x="477.87" y="818.74" width="247.19" height="59.43" rx="10.49" ry="10.49"/>
  <g>
    <path d="M171.03,1069.98c-.45,0-.9-.08-1.34-.23-2.08-.74-3.17-3.03-2.43-5.11l90.26-253.44c1.5-4.19,5.43-7.01,10.02-7.17,4.65-.16,8.76,2.38,10.55,6.48l111.06,251.74c.89,2.02-.02,4.38-2.04,5.27-2.02.9-4.38-.02-5.27-2.04l-111.07-251.75c-.73-1.66-2.45-1.72-2.95-1.71-.5.02-2.17.2-2.76,1.86l-90.26,253.43c-.58,1.64-2.12,2.66-3.77,2.66Z"/>
    <path d="M1028.47,1068.42c-1.53,0-3-.89-3.66-2.38l-110.07-248.41c-.73-1.66-2.45-1.73-2.95-1.71-.5.02-2.17.2-2.76,1.86l-88.26,247.43c-.74,2.08-3.03,3.17-5.11,2.42-2.08-.74-3.17-3.03-2.42-5.11l88.26-247.43c1.5-4.19,5.43-7,10.02-7.17,4.61-.17,8.75,2.38,10.55,6.48l110.06,248.39c.89,2.02-.02,4.38-2.04,5.28-.53.23-1.08.34-1.62.34Z"/>
    <g>
      <rect x="199.47" y="773.42" width="804" height="33.83" rx="10" ry="10"/>
      <path d="M993.47,809.25H209.47c-6.62,0-12-5.38-12-12v-13.83c0-6.62,5.38-12,12-12h784c6.62,0,12,5.38,12,12v13.83c0,6.62-5.38,12-12,12ZM209.47,775.42c-4.41,0-8,3.59-8,8v13.83c0,4.41,3.59,8,8,8h784c4.41,0,8-3.59,8-8v-13.83c0-4.41-3.59-8-8-8H209.47Z"/>
    </g>
  </g>
  <g>
    <path d="M500.84,820.89c-1.1,0-1.99-.88-2-1.98l-1.01-110.2c-.5-54.32,43.29-98.91,97.61-99.41l10.3-.09c.3,0,.61,0,.91,0,53.91,0,98,43.6,98.49,97.61l1.01,110.2c0,.53-.2,1.04-.57,1.42-.37.38-.88.59-1.41.6l-203.32,1.86h-.02ZM606.66,613.2c-.29,0-.58,0-.88,0l-10.3.09c-52.11.48-94.12,43.26-93.65,95.37l.99,108.2,199.32-1.82-.99-108.2c-.47-51.82-42.78-93.65-94.49-93.65Z"/>
    <path d="M494.47,881.94c-9.9,0-18-8.01-18.09-17.92l-.26-28.82c-.04-4.83,1.8-9.39,5.18-12.84s7.91-5.37,12.74-5.42l216.89-1.98c.06,0,.11,0,.17,0,4.77,0,9.26,1.84,12.67,5.18,3.45,3.39,5.37,7.91,5.42,12.74l.26,28.82c.09,9.97-7.95,18.16-17.92,18.25l-216.88,1.98c-.06,0-.11,0-.17,0ZM711.09,818.97s-.09,0-.13,0l-216.89,1.98c-7.77.07-14.03,6.45-13.96,14.22l.26,28.82c.07,7.77,6.46,14.04,14.22,13.96l216.88-1.98c3.76-.03,7.29-1.53,9.92-4.22,2.64-2.69,4.07-6.24,4.04-10l-.26-28.82c-.07-7.73-6.38-13.96-14.09-13.96Z"/>
    <g>
      <path d="M630.28,879.31l-22.17.82-21.04-1.03,3.24,96.63c.43,9.58,7.65,17.42,16.5,17.92h0c9.15.52,16.75-6.97,17.07-16.85l6.39-97.49Z"/>
      <g>
        <g>
          <path d="M594.87,964.62l-83.72,36.68c-7.57,3.32-13.06,10.11-14.71,18.22l-1.23,6.05,20.16,2.65h0c2.2-9.52,8.91-17.38,17.98-21.04l68.51-27.71-6.99-14.84Z"/>
          <path d="M592.91,969.84l3.53,7.49-64.59,26.13c-9.12,3.69-16.16,11.15-19.36,20.34l-12.5-1.64.38-1.85c1.39-6.82,6.02-12.56,12.39-15.35l80.15-35.12M594.87,964.62l-83.72,36.68c-7.57,3.32-13.06,10.11-14.71,18.22l-1.23,6.05,20.16,2.65c2.2-9.52,8.91-17.38,17.98-21.04l68.51-27.71-6.99-14.84h0Z"/>
        </g>
        <g>
          <circle class="cls-1" cx="503.12" cy="1045.39" r="23.51"/>
          <path d="M503.1,1025.87h0c1.43,0,2.87.16,4.29.48,5.09,1.14,9.42,4.19,12.21,8.59s3.7,9.63,2.56,14.71c-1.98,8.84-9.98,15.25-19.02,15.25-1.43,0-2.87-.16-4.29-.48-5.09-1.14-9.42-4.19-12.21-8.59-2.79-4.4-3.7-9.63-2.56-14.71,1.98-8.84,9.98-15.25,19.02-15.25M503.1,1021.87c-10.76,0-20.47,7.44-22.92,18.37-2.84,12.67,5.13,25.24,17.8,28.08,1.73.39,3.46.57,5.16.57,10.76,0,20.47-7.44,22.92-18.37,2.84-12.67-5.13-25.24-17.8-28.08-1.73-.39-3.46-.57-5.16-.57h0Z"/>
        </g>
      </g>
      <g>
        <g>
          <path d="M615.4,965.46l84.37,35.14c7.63,3.18,13.24,9.87,15.04,17.95l1.34,6.03-20.11,3.02h0c-2.38-9.48-9.23-17.21-18.36-20.71l-69.01-26.46,6.72-14.97Z"/>
          <path d="M617.46,970.65l80.78,33.65c6.42,2.68,11.16,8.33,12.67,15.12l.41,1.84-12.47,1.87c-3.37-9.13-10.54-16.46-19.73-19.98l-65.06-24.94,3.39-7.56M615.4,965.46l-6.72,14.97,69.01,26.46c9.13,3.5,15.98,11.23,18.36,20.71l20.11-3.02-1.34-6.03c-1.79-8.07-7.4-14.77-15.04-17.95l-84.37-35.14h0Z"/>
        </g>
        <g>
          <circle class="cls-1" cx="708.61" cy="1044.54" r="23.51"/>
          <path d="M708.63,1025.03c9.02,0,16.8,6.13,18.94,14.9,2.54,10.45-3.89,21.03-14.34,23.57-1.52.37-3.08.56-4.63.56-9.02,0-16.8-6.13-18.94-14.9-2.54-10.45,3.89-21.03,14.34-23.57,1.52-.37,3.08-.56,4.63-.56M708.63,1021.03c-1.84,0-3.71.22-5.58.67-12.62,3.07-20.35,15.78-17.29,28.4,2.62,10.75,12.23,17.96,22.82,17.96,1.84,0,3.71-.22,5.58-.67,12.62-3.07,20.35-15.79,17.29-28.4-2.62-10.75-12.23-17.96-22.82-17.96h0Z"/>
        </g>
      </g>
    </g>
  </g>
  <g>
    <rect class="cls-1" x="839.3" y="638.66" width="8.75" height="41.5" rx="3.26" ry="3.26" transform="translate(-108.06 168.68) rotate(-10.73)"/>
    <path d="M845.82,681.07c-.85,0-1.67-.25-2.39-.74-.94-.64-1.57-1.61-1.79-2.72h0l-6.52-34.38c-.44-2.31,1.08-4.54,3.39-4.97l2.2-.42c1.12-.21,2.25.02,3.19.66.94.64,1.57,1.61,1.79,2.72l6.52,34.38c.44,2.31-1.08,4.54-3.39,4.97l-2.2.42c-.27.05-.54.08-.8.08ZM843.61,677.23c.23,1.22,1.41,2.02,2.64,1.8l2.2-.42c.59-.11,1.11-.45,1.45-.95.34-.5.46-1.1.35-1.69l-6.52-34.38c-.23-1.22-1.41-2.02-2.64-1.8l-2.2.42c-.59.11-1.11.45-1.44.95-.34.5-.46,1.1-.35,1.69l6.52,34.38Z"/>
  </g>
  <g>
    <rect class="cls-1" x="866.38" y="639.41" width="8.75" height="41.5" rx="3.26" ry="3.26" transform="translate(138.2 -150.63) rotate(10.73)"/>
    <path d="M868.61,681.82c-.27,0-.53-.03-.8-.08l-2.2-.42c-2.31-.44-3.83-2.67-3.39-4.97l6.52-34.38c.21-1.12.85-2.08,1.79-2.72.94-.64,2.07-.88,3.19-.66l2.2.42c1.12.21,2.08.85,2.72,1.79s.88,2.07.66,3.19l-6.52,34.38h0c-.21,1.12-.85,2.08-1.79,2.72-.71.49-1.54.74-2.39.74ZM872.91,640.51c-1.06,0-2.01.76-2.22,1.84l-6.52,34.38c-.23,1.22.57,2.41,1.8,2.64l2.2.42c1.22.23,2.41-.58,2.64-1.8l6.52-34.38c.11-.59-.01-1.19-.35-1.69-.34-.5-.85-.83-1.45-.95l-2.2-.42c-.14-.03-.28-.04-.42-.04ZM871.8,678.17h0,0Z"/>
  </g>
  <path d="M1102,1069.92H98c-1.1,0-2-.9-2-2s.9-2,2-2h1004c1.1,0,2,.9,2,2s-.9,2-2,2Z"/>
  <g>
    <rect class="cls-1" x="444.35" y="114.88" width="311.29" height="402" rx="16.19" ry="16.19"/>
    <path d="M739.45,518.88h-278.9c-10.03,0-18.19-8.16-18.19-18.19V131.08c0-10.03,8.16-18.19,18.19-18.19h278.9c10.03,0,18.19,8.16,18.19,18.19v369.61c0,10.03-8.16,18.19-18.19,18.19ZM460.55,116.88c-7.83,0-14.19,6.37-14.19,14.19v369.61c0,7.83,6.37,14.19,14.19,14.19h278.9c7.83,0,14.19-6.37,14.19-14.19V131.08c0-7.83-6.37-14.19-14.19-14.19h-278.9Z"/>
  </g>
  <g>
    <rect class="cls-1" x="821.89" y="677.06" width="72" height="94.37" rx="17.16" ry="17.16"/>
    <path d="M876.74,773.42h-37.69c-10.56,0-19.16-8.59-19.16-19.16v-60.05c0-10.56,8.59-19.16,19.16-19.16h37.69c10.56,0,19.16,8.59,19.16,19.16v60.05c0,10.56-8.59,19.16-19.16,19.16ZM839.05,679.05c-8.36,0-15.16,6.8-15.16,15.16v60.05c0,8.36,6.8,15.16,15.16,15.16h37.69c8.36,0,15.16-6.8,15.16-15.16v-60.05c0-8.36-6.8-15.16-15.16-15.16h-37.69Z"/>
  </g>
  <g>
    <line class="cls-1" x1="837.6" y1="648.58" x2="845.1" y2="647.02"/>
    <path d="M837.6,649.58c-.46,0-.88-.32-.98-.8-.11-.54.24-1.07.78-1.18l7.5-1.56c.54-.11,1.07.23,1.18.78.11.54-.24,1.07-.78,1.18l-7.5,1.56c-.07.01-.14.02-.21.02Z"/>
  </g>
  <g>
    <line class="cls-1" x1="838.03" y1="652.05" x2="846.22" y2="650.49"/>
    <path d="M838.03,653.05c-.47,0-.89-.33-.98-.81-.1-.54.25-1.07.8-1.17l8.19-1.56c.55-.1,1.07.25,1.17.8s-.25,1.07-.8,1.17l-8.19,1.56c-.06.01-.13.02-.19.02Z"/>
  </g>
  <path d="M863.7,653.13c-.06,0-.13,0-.2-.02-.54-.11-.89-.63-.79-1.18l1.54-7.77c.05-.26.21-.49.43-.64.23-.15.5-.19.76-.14l3.9.85c.54.12.88.65.77,1.19-.12.54-.65.88-1.19.77l-2.91-.63-1.34,6.77c-.09.48-.51.81-.98.81Z"/>
  <g>
    <rect class="cls-1" x="301.62" y="759.42" width="101" height="14" rx="7" ry="7"/>
    <path d="M395.62,775.42h-87c-4.96,0-9-4.04-9-9s4.04-9,9-9h87c4.96,0,9,4.04,9,9s-4.04,9-9,9ZM308.62,761.42c-2.76,0-5,2.24-5,5s2.24,5,5,5h87c2.76,0,5-2.24,5-5s-2.24-5-5-5h-87Z"/>
  </g>
  <g>
    <rect class="cls-1" x="337.12" y="722.01" width="30" height="37.41"/>
    <path d="M367.12,761.42h-30c-1.1,0-2-.9-2-2v-37.41c0-1.1.9-2,2-2h30c1.1,0,2,.9,2,2v37.41c0,1.1-.9,2-2,2ZM339.12,757.42h26v-33.41h-26v33.41Z"/>
  </g>
  <g>
    <rect class="cls-1" x="238.12" y="593.01" width="228" height="129" rx="17.39" ry="17.39"/>
    <path d="M448.73,724.01h-193.22c-10.69,0-19.39-8.7-19.39-19.39v-94.22c0-10.69,8.7-19.39,19.39-19.39h193.22c10.69,0,19.39,8.7,19.39,19.39v94.22c0,10.69-8.7,19.39-19.39,19.39ZM255.51,595.01c-8.49,0-15.39,6.9-15.39,15.39v94.22c0,8.49,6.9,15.39,15.39,15.39h193.22c8.49,0,15.39-6.9,15.39-15.39v-94.22c0-8.49-6.9-15.39-15.39-15.39h-193.22Z"/>
  </g>
  <circle class="cls-3" cx="352.12" cy="657.51" r="10.54"/>
  <path class="cls-3" d="M519.74,204.17l-30.99,125.27c-1.73,7,5.14,13.05,11.87,10.44l138.32-53.63c6.72-2.61,7.72-11.71,1.73-15.71l-107.33-71.64c-5.13-3.43-12.11-.72-13.59,5.27Z"/>
  <rect class="cls-2" x="572.13" y="365.36" width="108.29" height="105" rx="25.19" ry="25.19"/>
  <circle cx="684.5" cy="185.4" r="25"/>
</svg>